<svg xmlns="http://www.w3.org/2000/svg" viewBox="0 0 26 26"><path d="M 4 0 C 1.796875 0 0 1.796875 0 4 L 0 18 C 0 20.203125 1.796875 22 4 22 L 7 22 L 7 20 L 4 20 C 2.894531 20 2 19.105469 2 18 L 2 4 C 2 2.894531 2.894531 2 4 2 L 10.28125 2 C 10.433594 2.039063 10.5625 2.121094 10.65625 2.21875 C 11.089844 2.097656 11.53125 2 12 2 L 13.0625 2 C 11.773438 0.71875 10.902344 0 10 0 Z M 12 3 C 9.796875 3 8 4.796875 8 7 L 8 22 C 8 24.203125 9.796875 26 12 26 L 22 26 C 24.203125 26 26 24.203125 26 22 L 26 11 C 26 9.9375 25.027344 8.929688 23.28125 7.21875 C 23.039063 6.980469 22.777344 6.714844 22.53125 6.46875 C 22.285156 6.222656 22.019531 5.992188 21.78125 5.75 C 20.070313 4.003906 19.0625 3 18 3 Z M 12 5 L 18.28125 5 C 19.003906 5.183594 19 6.050781 19 6.9375 L 19 9 C 19 9.550781 19.449219 10 20 10 L 22 10 C 22.996094 10 24 10.003906 24 11 L 24 22 C 24 23.105469 23.105469 24 22 24 L 12 24 C 10.894531 24 10 23.105469 10 22 L 10 7 C 10 5.894531 10.894531 5 12 5 Z M 19.53125 12.09375 C 18.90625 12.125 18.308594 12.378906 17.84375 12.84375 L 16.59375 14.125 C 16.878906 13.835938 17.929688 14.023438 18.1875 14.28125 L 18.71875 13.71875 C 18.964844 13.476563 19.28125 13.328125 19.59375 13.3125 C 19.804688 13.300781 20.109375 13.359375 20.375 13.625 C 20.621094 13.875 20.6875 14.148438 20.6875 14.34375 C 20.6875 14.671875 20.539063 15.023438 20.28125 15.28125 L 17.96875 17.5625 C 17.488281 18.042969 16.738281 18.113281 16.3125 17.6875 C 16.070313 17.445313 15.679688 17.445313 15.4375 17.6875 C 15.195313 17.929688 15.195313 18.320313 15.4375 18.5625 C 15.875 19 16.46875 19.21875 17.0625 19.21875 C 17.703125 19.21875 18.339844 18.972656 18.84375 18.46875 L 21.15625 16.15625 C 21.644531 15.667969 21.9375 15 21.9375 14.34375 C 21.9375 13.738281 21.679688 13.179688 21.25 12.75 C 20.792969 12.292969 20.179688 12.066406 19.53125 12.09375 Z M 16.78125 14.9375 C 16.140625 14.9375 15.5 15.214844 15 15.71875 L 12.84375 17.84375 C 12.355469 18.332031 12.0625 19 12.0625 19.65625 C 12.0625 20.265625 12.320313 20.820313 12.75 21.25 C 13.210938 21.707031 13.816406 21.9375 14.46875 21.90625 C 15.089844 21.875 15.691406 21.621094 16.15625 21.15625 L 17.25 20.03125 C 16.964844 20.320313 15.914063 20.132813 15.65625 19.875 L 15.28125 20.28125 C 15.035156 20.523438 14.71875 20.671875 14.40625 20.6875 C 14.195313 20.699219 13.890625 20.640625 13.625 20.375 C 13.378906 20.128906 13.3125 19.851563 13.3125 19.65625 C 13.3125 19.328125 13.460938 18.976563 13.71875 18.71875 L 15.875 16.59375 C 16.359375 16.113281 17.074219 16.046875 17.5 16.46875 C 17.742188 16.710938 18.164063 16.710938 18.40625 16.46875 C 18.648438 16.226563 18.648438 15.835938 18.40625 15.59375 C 17.96875 15.15625 17.375 14.9375 16.78125 14.9375 Z"></path></svg>