<svg xmlns="http://www.w3.org/2000/svg" viewBox="0 0 50 50">    <path d="M 5 2 C 3.346 2 2 3.346 2 5 L 2 44 C 2 45.654 3.346 47 5 47 L 29.398438 47 C 31.582874 48.866088 34.409043 50 37.5 50 C 44.391715 50 50 44.391715 50 37.5 C 50 31.823907 46.192365 27.026485 41 25.507812 L 41 5 C 41 3.346 39.654 2 38 2 L 5 2 z M 9 7 L 34 7 L 34 10 L 9 10 L 9 7 z M 9 15 L 16 15 L 16 22 L 9 22 L 9 15 z M 18 15 L 25 15 L 25 22 L 18 22 L 18 15 z M 27 15 L 34 15 L 33.998047 22 L 27 22 L 27 15 z M 12.5 16 A 2.5 2.5 0 0 0 10 18.5 A 2.5 2.5 0 0 0 12.5 21 A 2.5 2.5 0 0 0 15 18.5 A 2.5 2.5 0 0 0 12.5 16 z M 30.5 16 A 2.5 2.5 0 0 0 28 18.5 A 2.5 2.5 0 0 0 30.5 21 A 2.5 2.5 0 0 0 33 18.5 A 2.5 2.5 0 0 0 30.5 16 z M 9 24 L 16 24 L 16 31 L 9 31 L 9 24 z M 18 24 L 25 24 L 25 31 L 18 31 L 18 24 z M 27 24 L 33.998047 24 L 33.998047 25.507812 C 31.083343 26.360792 28.612167 28.247147 27 30.744141 L 27 24 z M 37.480469 27 C 37.486311 26.999988 37.494158 27.000002 37.5 27 C 38.257353 26.999896 39.01586 27.085006 39.783203 27.255859 C 44.489814 28.295924 48 32.474728 48 37.5 C 48 43.310835 43.310835 48 37.5 48 C 34.791623 48 32.334419 46.973007 30.474609 45.296875 C 30.46328 45.285545 30.457264 45.270623 30.445312 45.259766 C 28.881123 43.836706 27.801062 42.0125 27.304688 39.978516 C 27.112643 39.182731 27 38.355848 27 37.5 C 27 32.481672 30.500474 28.307072 35.197266 27.259766 C 35.203731 27.258482 35.210343 27.259225 35.216797 27.257812 C 35.976893 27.08813 36.728318 27.001556 37.480469 27 z M 33.988281 32 L 33.425781 38.539062 L 35.535156 38.539062 C 35.926156 37.906062 36.589844 37.523438 37.464844 37.523438 C 38.659844 37.523438 39.503906 38.35175 39.503906 39.59375 C 39.503906 40.82075 38.668031 41.632812 37.457031 41.632812 C 36.387031 41.632813 35.558781 41.008313 35.425781 40.070312 L 33.246094 40.070312 C 33.316094 42.086312 34.987406 43.561547 37.441406 43.560547 C 40.026406 43.560547 41.753906 41.928109 41.753906 39.537109 C 41.753906 37.326109 40.238656 35.757812 38.097656 35.757812 C 36.979656 35.757812 36.184031 36.171375 35.707031 36.859375 L 35.566406 36.859375 L 35.816406 33.960938 L 41.074219 33.960938 L 41.074219 32 L 33.988281 32 z M 9 33 L 16 33 L 16 40 L 9 40 L 9 33 z M 18 33 L 25 33 L 25 40 L 18 40 L 18 33 z M 12.5 34 A 2.5 2.5 0 0 0 10 36.5 A 2.5 2.5 0 0 0 12.5 39 A 2.5 2.5 0 0 0 15 36.5 A 2.5 2.5 0 0 0 12.5 34 z"></path></svg>